<svg xmlns="http://www.w3.org/2000/svg" xmlns:xlink="http://www.w3.org/1999/xlink" width="1295" zoomAndPan="magnify" viewBox="0 0 971.25 263.250001" height="351" preserveAspectRatio="xMidYMid meet" version="1.0"><defs><g/></defs><g fill="#262323" fill-opacity="1"><g transform="translate(62.164809, 174.627489)"><g><path d="M 32.875 -18.3125 C 35.21875 -18.394531 37.554688 -18.457031 39.890625 -18.5 C 42.234375 -18.539062 44.578125 -18.601562 46.921875 -18.6875 C 54.203125 -18.945312 57.84375 -15.9375 57.84375 -9.65625 C 57.84375 -3.21875 54.285156 0 47.171875 0 L 20.078125 0 C 16.648438 0 14.015625 -0.914062 12.171875 -2.75 C 10.328125 -4.59375 9.445312 -7.234375 9.53125 -10.671875 C 9.53125 -16.191406 9.550781 -21.6875 9.59375 -27.15625 C 9.632812 -32.632812 9.65625 -38.09375 9.65625 -43.53125 C 9.65625 -48.96875 9.632812 -54.425781 9.59375 -59.90625 C 9.550781 -65.382812 9.53125 -70.84375 9.53125 -76.28125 C 9.445312 -79.707031 10.328125 -82.34375 12.171875 -84.1875 C 14.015625 -86.03125 16.648438 -86.953125 20.078125 -86.953125 L 22.328125 -86.953125 C 29.441406 -86.953125 33 -83.394531 33 -76.28125 C 33 -70.84375 32.976562 -65.382812 32.9375 -59.90625 C 32.894531 -54.425781 32.875 -48.96875 32.875 -43.53125 Z M 32.875 -18.3125 "/></g></g></g><g fill="#262323" fill-opacity="1"><g transform="translate(127.909557, 174.627489)"><g><path d="M 58.21875 -69.390625 C 65.320312 -69.390625 68.875 -65.832031 68.875 -58.71875 C 68.789062 -54.28125 68.726562 -49.863281 68.6875 -45.46875 C 68.644531 -41.082031 68.625 -36.632812 68.625 -32.125 C 68.625 -28.519531 68.644531 -24.941406 68.6875 -21.390625 C 68.726562 -17.835938 68.75 -14.265625 68.75 -10.671875 C 68.832031 -7.234375 68.117188 -4.59375 66.609375 -2.75 C 65.109375 -0.914062 62.976562 0 60.21875 0 C 54.28125 0 50.769531 -1.878906 49.6875 -5.640625 C 49.1875 -7.734375 48.8125 -9.703125 48.5625 -11.546875 C 46.632812 -7.441406 43.890625 -4.257812 40.328125 -2 C 36.773438 0.25 32.535156 1.375 27.609375 1.375 C 23.503906 1.375 19.90625 0.539062 16.8125 -1.125 C 13.71875 -2.800781 11.351562 -5.519531 9.71875 -9.28125 C 8.09375 -13.050781 7.320312 -18.113281 7.40625 -24.46875 C 7.570312 -30.320312 7.613281 -36.050781 7.53125 -41.65625 C 7.445312 -47.257812 7.363281 -52.945312 7.28125 -58.71875 C 7.28125 -65.832031 10.832031 -69.390625 17.9375 -69.390625 L 18.6875 -69.390625 C 25.800781 -69.390625 29.359375 -65.832031 29.359375 -58.71875 C 29.273438 -53.613281 29.210938 -48.59375 29.171875 -43.65625 C 29.128906 -38.726562 29.109375 -33.671875 29.109375 -28.484375 C 29.109375 -24.460938 29.816406 -21.445312 31.234375 -19.4375 C 32.660156 -17.4375 34.628906 -16.476562 37.140625 -16.5625 C 40.066406 -16.644531 42.425781 -17.984375 44.21875 -20.578125 C 46.019531 -23.171875 46.921875 -27.019531 46.921875 -32.125 C 47.085938 -36.632812 47.148438 -41.082031 47.109375 -45.46875 C 47.066406 -49.863281 47.003906 -54.28125 46.921875 -58.71875 C 46.835938 -62.144531 47.71875 -64.78125 49.5625 -66.625 C 51.40625 -68.46875 54.039062 -69.390625 57.46875 -69.390625 Z M 58.21875 -69.390625 "/></g></g></g><g fill="#262323" fill-opacity="1"><g transform="translate(208.08298, 174.627489)"><g><path d="M 39.78125 -15.1875 C 43.457031 -15.351562 46.296875 -15.160156 48.296875 -14.609375 C 50.304688 -14.066406 51.4375 -12.5 51.6875 -9.90625 C 51.9375 -7.226562 51.5 -4.925781 50.375 -3 C 49.25 -1.082031 47.304688 0.164062 44.546875 0.75 C 42.035156 1.25 39.273438 1.5 36.265625 1.5 C 31.078125 1.5 26.578125 0.707031 22.765625 -0.875 C 18.960938 -2.46875 16.035156 -5.0625 13.984375 -8.65625 C 11.941406 -12.25 10.960938 -17.101562 11.046875 -23.21875 C 11.128906 -26.894531 11.171875 -30.738281 11.171875 -34.75 C 11.171875 -38.769531 11.171875 -42.785156 11.171875 -46.796875 L 11.171875 -53.328125 L 11.046875 -53.328125 C 3.929688 -53.328125 0.375 -56.003906 0.375 -61.359375 C 0.375 -66.710938 2.171875 -69.390625 5.765625 -69.390625 L 11.046875 -69.390625 C 11.046875 -70.472656 11.023438 -71.515625 10.984375 -72.515625 C 10.941406 -73.523438 10.921875 -74.570312 10.921875 -75.65625 C 10.921875 -81.84375 13.847656 -85.859375 19.703125 -87.703125 C 23.210938 -88.867188 26.03125 -88.78125 28.15625 -87.4375 C 30.289062 -86.101562 31.359375 -83.765625 31.359375 -80.421875 L 31.359375 -69.390625 L 40.15625 -69.390625 C 47.257812 -69.390625 50.8125 -66.753906 50.8125 -61.484375 C 50.8125 -56.210938 47.59375 -53.578125 41.15625 -53.578125 L 31.359375 -53.453125 C 31.359375 -52.359375 31.335938 -51.269531 31.296875 -50.1875 C 31.253906 -49.101562 31.234375 -47.972656 31.234375 -46.796875 C 31.148438 -43.203125 31.109375 -39.601562 31.109375 -36 C 31.109375 -32.40625 31.109375 -28.976562 31.109375 -25.71875 C 31.109375 -18.613281 34 -15.101562 39.78125 -15.1875 Z M 39.78125 -15.1875 "/></g></g></g><g fill="#262323" fill-opacity="1"><g transform="translate(266.048795, 174.627489)"><g><path d="M 36.765625 1.5 C 15.265625 1.5 4.515625 -10.5 4.515625 -34.5 C 4.515625 -58.507812 15.265625 -70.515625 36.765625 -70.515625 C 57.921875 -70.515625 68.5 -58.507812 68.5 -34.5 C 68.5 -10.5 57.921875 1.5 36.765625 1.5 Z M 36.765625 -13.796875 C 38.773438 -13.796875 40.550781 -14.359375 42.09375 -15.484375 C 43.644531 -16.617188 44.859375 -18.691406 45.734375 -21.703125 C 46.609375 -24.710938 47.046875 -28.976562 47.046875 -34.5 C 47.046875 -42.195312 46.25 -47.570312 44.65625 -50.625 C 43.070312 -53.675781 40.441406 -55.203125 36.765625 -55.203125 C 32.828125 -55.203125 30.039062 -53.675781 28.40625 -50.625 C 26.78125 -47.570312 25.96875 -42.195312 25.96875 -34.5 C 25.96875 -28.976562 26.425781 -24.710938 27.34375 -21.703125 C 28.269531 -18.691406 29.546875 -16.617188 31.171875 -15.484375 C 32.804688 -14.359375 34.671875 -13.796875 36.765625 -13.796875 Z M 36.765625 -13.796875 "/></g></g></g><g fill="#262323" fill-opacity="1"><g transform="translate(343.08554, 174.627489)"><g><path d="M 69.765625 -10.796875 C 69.765625 -3.597656 66.207031 0 59.09375 0 L 58.71875 0 C 51.601562 0 48.046875 -3.597656 48.046875 -10.796875 C 48.140625 -16.566406 48.207031 -22.0625 48.25 -27.28125 C 48.289062 -32.507812 48.3125 -37.300781 48.3125 -41.65625 C 48.3125 -45.75 47.597656 -48.59375 46.171875 -50.1875 C 44.753906 -51.78125 42.625 -52.535156 39.78125 -52.453125 C 34.925781 -52.273438 31.453125 -49.847656 29.359375 -45.171875 C 29.359375 -43.492188 29.335938 -41.753906 29.296875 -39.953125 C 29.253906 -38.160156 29.234375 -36.382812 29.234375 -34.625 C 29.148438 -30.53125 29.128906 -26.515625 29.171875 -22.578125 C 29.210938 -18.648438 29.273438 -14.679688 29.359375 -10.671875 C 29.359375 -3.554688 25.800781 0 18.6875 0 L 17.9375 0 C 10.832031 0 7.28125 -3.554688 7.28125 -10.671875 C 7.363281 -14.679688 7.425781 -18.648438 7.46875 -22.578125 C 7.507812 -26.515625 7.53125 -30.53125 7.53125 -34.625 C 7.53125 -38.8125 7.507812 -42.890625 7.46875 -46.859375 C 7.425781 -50.835938 7.363281 -54.832031 7.28125 -58.84375 C 7.28125 -65.957031 10.789062 -69.515625 17.8125 -69.515625 C 21.15625 -69.515625 23.726562 -69.007812 25.53125 -68 C 27.332031 -67 28.191406 -65.535156 28.109375 -63.609375 C 28.109375 -62.773438 28.109375 -61.875 28.109375 -60.90625 C 28.109375 -59.945312 28.109375 -58.84375 28.109375 -57.59375 L 28.484375 -57.59375 C 30.910156 -62.019531 33.941406 -65.28125 37.578125 -67.375 C 41.210938 -69.46875 45.457031 -70.515625 50.3125 -70.515625 C 56.914062 -70.515625 61.847656 -68.253906 65.109375 -63.734375 C 68.378906 -59.222656 69.890625 -51.78125 69.640625 -41.40625 C 69.554688 -37.050781 69.535156 -32.28125 69.578125 -27.09375 C 69.617188 -21.914062 69.679688 -16.484375 69.765625 -10.796875 Z M 69.765625 -10.796875 "/></g></g></g><g fill="#262323" fill-opacity="1"><g transform="translate(424.137244, 174.627489)"><g><path d="M 43.40625 -14.171875 C 52.101562 -14.171875 58.898438 -12.789062 63.796875 -10.03125 C 68.691406 -7.269531 71.140625 -2.460938 71.140625 4.390625 C 71.140625 9.078125 69.988281 13.488281 67.6875 17.625 C 65.382812 21.769531 61.597656 25.09375 56.328125 27.59375 C 51.066406 30.101562 43.957031 31.359375 35 31.359375 C 25.46875 31.359375 17.835938 29.5625 12.109375 25.96875 C 6.378906 22.375 3.515625 17.441406 3.515625 11.171875 C 3.515625 7.066406 4.640625 3.988281 6.890625 1.9375 C 9.148438 -0.101562 11.703125 -1.164062 14.546875 -1.25 C 12.378906 -2.257812 10.601562 -3.828125 9.21875 -5.953125 C 7.84375 -8.085938 7.15625 -10.453125 7.15625 -13.046875 C 7.15625 -15.554688 7.863281 -17.878906 9.28125 -20.015625 C 10.707031 -22.148438 12.550781 -23.71875 14.8125 -24.71875 C 7.695312 -28.8125 4.140625 -35.710938 4.140625 -45.421875 C 4.140625 -51.773438 5.414062 -56.832031 7.96875 -60.59375 C 10.519531 -64.363281 14.660156 -67.101562 20.390625 -68.8125 C 26.117188 -70.53125 33.75 -71.390625 43.28125 -71.390625 C 45.789062 -71.390625 48.488281 -71.328125 51.375 -71.203125 C 54.257812 -71.078125 57.082031 -70.929688 59.84375 -70.765625 C 63.445312 -70.597656 66.125 -69.90625 67.875 -68.6875 C 69.632812 -67.476562 70.347656 -65.992188 70.015625 -64.234375 C 69.253906 -60.722656 67.410156 -59.050781 64.484375 -59.21875 C 63.898438 -59.300781 63.234375 -59.34375 62.484375 -59.34375 C 61.734375 -59.34375 60.894531 -59.34375 59.96875 -59.34375 C 61.644531 -57.507812 62.878906 -55.378906 63.671875 -52.953125 C 64.472656 -50.523438 64.875 -47.21875 64.875 -43.03125 C 64.875 -27.976562 55.039062 -20.453125 35.375 -20.453125 C 33.039062 -20.453125 30.804688 -20.554688 28.671875 -20.765625 C 26.535156 -20.972656 24.546875 -21.285156 22.703125 -21.703125 C 22.285156 -21.117188 22.078125 -20.578125 22.078125 -20.078125 C 22.078125 -18.648438 22.597656 -17.5 23.640625 -16.625 C 24.691406 -15.75 26.765625 -15.117188 29.859375 -14.734375 C 32.953125 -14.359375 37.46875 -14.171875 43.40625 -14.171875 Z M 35.375 -57.84375 C 31.445312 -57.84375 28.644531 -56.984375 26.96875 -55.265625 C 25.300781 -53.554688 24.46875 -50.484375 24.46875 -46.046875 C 24.46875 -40.859375 25.46875 -37.363281 27.46875 -35.5625 C 29.476562 -33.769531 32.113281 -32.875 35.375 -32.875 C 38.5625 -32.875 41.113281 -33.769531 43.03125 -35.5625 C 44.957031 -37.363281 45.921875 -40.859375 45.921875 -46.046875 C 45.921875 -50.484375 45.101562 -53.554688 43.46875 -55.265625 C 41.84375 -56.984375 39.144531 -57.84375 35.375 -57.84375 Z M 36.265625 16.5625 C 43.453125 16.5625 48.363281 16.015625 51 14.921875 C 53.632812 13.835938 54.953125 12 54.953125 9.40625 C 54.953125 6.476562 53.550781 4.742188 50.75 4.203125 C 47.945312 3.660156 43.578125 3.390625 37.640625 3.390625 C 35.046875 3.390625 32.328125 3.367188 29.484375 3.328125 C 26.640625 3.285156 23.960938 3.097656 21.453125 2.765625 C 19.691406 3.765625 18.8125 5.351562 18.8125 7.53125 C 18.8125 13.550781 24.628906 16.5625 36.265625 16.5625 Z M 36.265625 16.5625 "/></g></g></g><g fill="#262323" fill-opacity="1"><g transform="translate(501.550388, 174.627489)"><g/></g></g><g fill="#262323" fill-opacity="1"><g transform="translate(536.932174, 174.627489)"><g><path d="M 20.078125 0 C 12.960938 0 9.40625 -3.554688 9.40625 -10.671875 C 9.488281 -16.359375 9.550781 -24.425781 9.59375 -34.875 C 9.632812 -45.332031 9.65625 -59.007812 9.65625 -75.90625 C 9.65625 -83.269531 13.210938 -86.953125 20.328125 -86.953125 L 42.90625 -86.953125 C 50.851562 -86.953125 57.164062 -86.175781 61.84375 -84.625 C 66.53125 -83.082031 69.878906 -80.847656 71.890625 -77.921875 C 73.898438 -74.992188 74.90625 -71.4375 74.90625 -67.25 C 74.90625 -61.644531 73.546875 -56.957031 70.828125 -53.1875 C 68.109375 -49.425781 64.53125 -46.835938 60.09375 -45.421875 L 60.09375 -44.921875 C 66.03125 -44.335938 70.378906 -42.328125 73.140625 -38.890625 C 75.898438 -35.460938 77.28125 -31.195312 77.28125 -26.09375 C 77.28125 -21.238281 76.085938 -16.847656 73.703125 -12.921875 C 71.328125 -8.992188 67.796875 -5.859375 63.109375 -3.515625 C 58.421875 -1.171875 52.523438 0 45.421875 0 Z M 31.75 -51.9375 L 35.640625 -51.9375 C 42.078125 -51.9375 46.53125 -53.066406 49 -55.328125 C 51.46875 -57.585938 52.703125 -60.265625 52.703125 -63.359375 C 52.703125 -66.367188 51.550781 -68.539062 49.25 -69.875 C 46.945312 -71.21875 43.535156 -71.890625 39.015625 -71.890625 L 31.875 -71.890625 C 31.789062 -69.296875 31.75 -66.453125 31.75 -63.359375 C 31.75 -60.265625 31.75 -56.457031 31.75 -51.9375 Z M 31.875 -14.9375 L 39.015625 -14.9375 C 44.285156 -14.9375 48.363281 -16.082031 51.25 -18.375 C 54.132812 -20.675781 55.578125 -23.921875 55.578125 -28.109375 C 55.578125 -31.785156 54.363281 -34.734375 51.9375 -36.953125 C 49.519531 -39.171875 45.84375 -40.28125 40.90625 -40.28125 L 31.75 -40.28125 L 31.75 -30.734375 C 31.75 -28.140625 31.75 -25.523438 31.75 -22.890625 C 31.75 -20.265625 31.789062 -17.613281 31.875 -14.9375 Z M 31.875 -14.9375 "/></g></g></g><g fill="#262323" fill-opacity="1"><g transform="translate(623.880835, 174.627489)"><g><path d="M 26.21875 1.25 C 22.125 1.25 18.378906 0.582031 14.984375 -0.75 C 11.597656 -2.09375 8.898438 -4.164062 6.890625 -6.96875 C 4.890625 -9.769531 3.890625 -13.34375 3.890625 -17.6875 C 3.890625 -25.550781 7.210938 -31.46875 13.859375 -35.4375 C 20.515625 -39.414062 30.910156 -41.195312 45.046875 -40.78125 L 45.046875 -45.046875 C 45.046875 -49.640625 44.394531 -52.773438 43.09375 -54.453125 C 41.800781 -56.128906 39.773438 -56.96875 37.015625 -56.96875 C 35.421875 -56.96875 33.953125 -56.734375 32.609375 -56.265625 C 31.273438 -55.804688 30.234375 -54.992188 29.484375 -53.828125 C 28.316406 -51.984375 27.332031 -50.390625 26.53125 -49.046875 C 25.738281 -47.710938 24.835938 -46.691406 23.828125 -45.984375 C 22.828125 -45.273438 21.285156 -44.921875 19.203125 -44.921875 L 17.9375 -44.921875 C 14.425781 -44.921875 11.601562 -45.878906 9.46875 -47.796875 C 7.332031 -49.722656 6.769531 -52.398438 7.78125 -55.828125 C 9.195312 -60.765625 12.414062 -64.445312 17.4375 -66.875 C 22.457031 -69.300781 29.523438 -70.515625 38.640625 -70.515625 C 57.296875 -70.515625 66.625 -62.148438 66.625 -45.421875 C 66.625 -37.890625 66.644531 -31.320312 66.6875 -25.71875 C 66.726562 -20.113281 66.832031 -15.179688 67 -10.921875 C 67.164062 -7.398438 66.410156 -4.695312 64.734375 -2.8125 C 63.066406 -0.9375 60.519531 0 57.09375 0 L 55.953125 0 C 49.597656 0 46.171875 -1.003906 45.671875 -3.015625 C 45.503906 -3.515625 45.378906 -4.015625 45.296875 -4.515625 C 45.210938 -5.015625 45.128906 -5.515625 45.046875 -6.015625 C 42.535156 -3.597656 39.648438 -1.78125 36.390625 -0.5625 C 33.128906 0.644531 29.738281 1.25 26.21875 1.25 Z M 32.875 -12.921875 C 35.71875 -12.921875 38.140625 -13.484375 40.140625 -14.609375 C 42.148438 -15.742188 43.867188 -17.359375 45.296875 -19.453125 L 45.296875 -30.734375 C 41.523438 -30.648438 38.007812 -30.359375 34.75 -29.859375 C 31.488281 -29.359375 28.851562 -28.4375 26.84375 -27.09375 C 24.84375 -25.757812 23.84375 -23.753906 23.84375 -21.078125 C 23.84375 -18.734375 24.613281 -16.785156 26.15625 -15.234375 C 27.707031 -13.691406 29.945312 -12.921875 32.875 -12.921875 Z M 32.875 -12.921875 "/></g></g></g><g fill="#262323" fill-opacity="1"><g transform="translate(700.91758, 174.627489)"><g><path d="M 69.140625 -10.796875 C 69.140625 -3.597656 65.582031 0 58.46875 0 L 58.09375 0 C 50.976562 0 47.421875 -3.597656 47.421875 -10.796875 C 47.503906 -16.566406 47.566406 -22.0625 47.609375 -27.28125 C 47.648438 -32.507812 47.671875 -37.300781 47.671875 -41.65625 C 47.671875 -45.75 46.957031 -48.59375 45.53125 -50.1875 C 44.113281 -51.78125 41.984375 -52.535156 39.140625 -52.453125 C 34.210938 -52.273438 30.703125 -49.765625 28.609375 -44.921875 C 28.523438 -39.066406 28.503906 -33.316406 28.546875 -27.671875 C 28.585938 -22.023438 28.648438 -16.359375 28.734375 -10.671875 C 28.734375 -3.554688 25.175781 0 18.0625 0 L 17.1875 0 C 10.082031 0 6.53125 -3.554688 6.53125 -10.671875 C 6.613281 -16.691406 6.695312 -22.671875 6.78125 -28.609375 C 6.863281 -34.546875 6.90625 -40.609375 6.90625 -46.796875 C 6.90625 -52.484375 6.863281 -58.046875 6.78125 -63.484375 C 6.695312 -68.921875 6.613281 -74.484375 6.53125 -80.171875 C 6.53125 -87.285156 10.082031 -90.84375 17.1875 -90.84375 L 18.0625 -90.84375 C 25.09375 -90.84375 28.609375 -88 28.609375 -82.3125 C 28.609375 -80.71875 28.609375 -79.1875 28.609375 -77.71875 C 28.609375 -76.257812 28.609375 -75.03125 28.609375 -74.03125 C 28.609375 -71.1875 28.566406 -68.425781 28.484375 -65.75 C 28.398438 -63.070312 28.148438 -60.4375 27.734375 -57.84375 L 27.859375 -57.59375 C 30.285156 -62.019531 33.316406 -65.28125 36.953125 -67.375 C 40.585938 -69.46875 44.832031 -70.515625 49.6875 -70.515625 C 56.289062 -70.515625 61.222656 -68.253906 64.484375 -63.734375 C 67.753906 -59.222656 69.257812 -51.78125 69 -41.40625 C 68.914062 -37.050781 68.894531 -32.28125 68.9375 -27.09375 C 68.976562 -21.914062 69.046875 -16.484375 69.140625 -10.796875 Z M 69.140625 -10.796875 "/></g></g></g><g fill="#639325" fill-opacity="1"><g transform="translate(781.346304, 174.627489)"><g><path d="M 40.03125 -88.203125 C 45.46875 -88.203125 50.234375 -86.925781 54.328125 -84.375 C 58.421875 -81.820312 61.847656 -77.617188 64.609375 -71.765625 C 67.367188 -65.910156 69.476562 -58.046875 70.9375 -48.171875 C 72.40625 -38.304688 73.269531 -26.015625 73.53125 -11.296875 C 73.613281 -7.691406 72.734375 -4.90625 70.890625 -2.9375 C 69.046875 -0.976562 66.410156 0 62.984375 0 L 61.109375 0 C 53.992188 0 50.4375 -3.257812 50.4375 -9.78125 C 50.4375 -11.457031 50.4375 -13.085938 50.4375 -14.671875 C 50.4375 -16.265625 50.394531 -17.859375 50.3125 -19.453125 L 28.109375 -19.453125 C 28.109375 -18.109375 28.085938 -16.703125 28.046875 -15.234375 C 28.003906 -13.773438 27.984375 -12.253906 27.984375 -10.671875 C 27.984375 -3.554688 24.46875 0 17.4375 0 C 14.09375 0 11.5 -0.914062 9.65625 -2.75 C 7.820312 -4.59375 6.945312 -7.273438 7.03125 -10.796875 C 7.113281 -14.222656 7.195312 -17.484375 7.28125 -20.578125 C 7.363281 -23.671875 7.488281 -26.640625 7.65625 -29.484375 C 8.65625 -44.285156 10.515625 -55.972656 13.234375 -64.546875 C 15.953125 -73.128906 19.546875 -79.21875 24.015625 -82.8125 C 28.492188 -86.40625 33.832031 -88.203125 40.03125 -88.203125 Z M 28.359375 -34.375 L 49.8125 -34.375 C 49.3125 -43.75 48.554688 -51.046875 47.546875 -56.265625 C 46.546875 -61.492188 45.269531 -65.175781 43.71875 -67.3125 C 42.175781 -69.445312 40.359375 -70.515625 38.265625 -70.515625 C 36.171875 -70.515625 34.429688 -69.445312 33.046875 -67.3125 C 31.671875 -65.175781 30.628906 -61.492188 29.921875 -56.265625 C 29.210938 -51.046875 28.691406 -43.75 28.359375 -34.375 Z M 28.359375 -34.375 "/></g></g></g><g fill="#639325" fill-opacity="1"><g transform="translate(865.911063, 174.627489)"><g><path d="M 20.078125 0 C 12.960938 0 9.40625 -3.554688 9.40625 -10.671875 L 9.40625 -76.28125 C 9.40625 -83.394531 12.960938 -86.953125 20.078125 -86.953125 L 22.328125 -86.953125 C 29.441406 -86.953125 33 -83.394531 33 -76.28125 L 33 -10.671875 C 33 -3.554688 29.441406 0 22.328125 0 Z M 20.078125 0 "/></g></g></g></svg>